<?xml version="1.0" encoding="utf-8"?>
<!-- Generator: Adobe Illustrator 25.1.0, SVG Export Plug-In . SVG Version: 6.00 Build 0)  -->
<svg version="1.1" id="Layer_1" xmlns="http://www.w3.org/2000/svg" xmlns:xlink="http://www.w3.org/1999/xlink" x="0px" y="0px"
	 viewBox="0 0 100 100" style="enable-background:new 0 0 100 100;" xml:space="preserve">
<path d="M45,11c0,0.5,0.9,1,2,1c1.4,0,2,0.7,2,2.3c0,2-0.7,2.5-5.2,3.4c-5.7,1.2-8.1,0-5-2.4c1.6-1.2,1.6-1.2,0-1.3
	c-2.3,0-6.8,2.1-6.8,3.2c0,0.5,0.8,0.8,1.8,0.6c3-0.5,1.8,2-2.5,5.1c-3.9,2.8-4.2,2.9-5.7,1.2c-1.2-1.3-1.3-2-0.4-2.9
	c0.6-0.6,0.8-1.5,0.5-1.9c-0.4-0.4-2.2,0.7-3.9,2.5c-1.8,1.7-2.9,3.5-2.5,3.9c0.4,0.3,1.3,0.1,1.9-0.5c0.9-0.9,1.6-0.8,2.9,0.4
	c1.7,1.5,1.6,1.8-1.2,5.7c-3.1,4.3-5.6,5.5-5.1,2.4c0.2-0.9-0.1-1.7-0.6-1.7c-1.1,0-3.2,4.5-3.2,6.8c0.1,1.6,0.1,1.6,1.3,0
	c2.4-3.1,3.6-0.7,2.4,4.9c-0.9,4.6-1.4,5.3-3.4,5.3c-1.6,0-2.3-0.6-2.3-2c0-1.1-0.4-2-1-2c-0.5,0-1,2.2-1,5c0,2.7,0.5,5,1,5
	c0.6,0,1-0.9,1-2c0-1.4,0.7-2,2.3-2c2,0,2.5,0.7,3.4,5.2c1.2,5.7,0,8.1-2.4,5c-1.2-1.6-1.2-1.6-1.3,0c0,2.3,2.1,6.8,3.2,6.8
	c0.5,0,0.8-0.8,0.6-1.8c-0.5-3,2-1.8,5.1,2.5c2.8,3.9,2.9,4.2,1.2,5.7c-1.3,1.2-2,1.3-2.9,0.4c-0.6-0.6-1.5-0.8-1.9-0.5
	c-0.4,0.4,0.7,2.2,2.5,3.9c1.7,1.8,3.5,2.9,3.9,2.5c0.3-0.4,0.1-1.3-0.5-1.9c-0.9-0.9-0.8-1.6,0.4-2.9c1.5-1.7,1.8-1.6,5.7,1.2
	c4.3,3.1,5.5,5.6,2.5,5.1c-1-0.2-1.8,0.1-1.8,0.6c0,1.1,4.5,3.2,6.8,3.2c1.6-0.1,1.6-0.1,0-1.3c-3.1-2.4-0.7-3.6,5-2.4
	c4.5,0.9,5.2,1.4,5.2,3.4c0,1.6-0.6,2.3-2,2.3c-1.1,0-2,0.4-2,1c0,0.5,2.3,1,5,1c2.8,0,5-0.5,5-1c0-0.6-0.9-1-2-1
	c-1.4,0-2-0.7-2-2.3c0-2,0.7-2.5,5.3-3.4c5.6-1.2,8,0,4.9,2.4c-1.6,1.2-1.6,1.2,0,1.3c2.3,0,6.8-2.1,6.8-3.2c0-0.5-0.8-0.8-1.7-0.6
	c-3.1,0.5-1.9-2,2.4-5.1c3.9-2.8,4.2-2.9,5.7-1.2c1.2,1.3,1.3,2,0.4,2.9c-0.6,0.6-0.8,1.5-0.5,1.9c0.4,0.4,2.2-0.7,3.9-2.5
	c1.8-1.7,2.9-3.5,2.5-3.9c-0.4-0.3-1.3-0.1-1.9,0.5c-0.9,0.9-1.6,0.8-2.9-0.4c-1.7-1.5-1.6-1.8,1.2-5.7c3.1-4.3,5.6-5.5,5.1-2.5
	c-0.2,1,0.1,1.8,0.6,1.8c1.1,0,3.2-4.5,3.2-6.8c-0.1-1.6-0.1-1.6-1.3,0c-2.4,3.1-3.6,0.7-2.4-5c0.9-4.5,1.4-5.2,3.4-5.2
	c1.6,0,2.3,0.6,2.3,2c0,1.1,0.5,2,1,2c0.6,0,1-2.3,1-5c0-2.8-0.4-5-1-5c-0.5,0-1,0.9-1,2c0,1.4-0.7,2-2.3,2c-2,0-2.5-0.7-3.4-5.3
	c-1.2-5.6,0-8,2.4-4.9c1.2,1.6,1.2,1.6,1.3,0c0-2.3-2.1-6.8-3.2-6.8c-0.5,0-0.8,0.8-0.6,1.7c0.5,3.1-2,1.9-5.1-2.4
	c-2.8-3.9-2.9-4.2-1.2-5.7c1.3-1.2,2-1.3,2.9-0.4c0.6,0.6,1.5,0.8,1.9,0.5c0.4-0.4-0.7-2.2-2.5-3.9c-1.7-1.8-3.5-2.9-3.9-2.5
	c-0.3,0.4-0.1,1.3,0.5,1.9c0.9,0.9,0.8,1.6-0.4,2.9c-1.5,1.7-1.8,1.6-5.7-1.2c-4.3-3.1-5.5-5.6-2.4-5.1c0.9,0.2,1.7-0.1,1.7-0.6
	c0-1.1-4.5-3.2-6.8-3.2c-1.6,0.1-1.6,0.1,0,1.3c3.1,2.4,0.7,3.6-4.9,2.4c-4.6-0.9-5.3-1.4-5.3-3.4c0-1.6,0.6-2.3,2-2.3
	c1.1,0,2-0.5,2-1c0-0.6-2.2-1-5-1C47.3,10,45,10.4,45,11z M62.6,21.9c11.2,5,17.8,15.3,17.8,28.1s-6.5,23-17.9,28.2
	c-7,3.2-18,3.2-25,0c-6.5-3-12.8-9.2-15.7-15.6c-3.1-7.1-3.2-18.1,0-25.1C28.9,21.9,47,15,62.6,21.9z"/>
<path d="M42.4,24.1c-5.9,1.7-12.6,7.1-15.8,12.9c-2.7,4.8-3.1,6.5-3.1,13c0,5.4,0.5,8.3,1.8,10.5c1,1.6,1.5,2.1,1.2,1
	c-4.3-12.7-2.4-22.5,5.7-30.1c5.5-5.3,9.5-6.8,17.4-6.9c4,0,6.7-0.3,6-0.7C54.1,22.8,46.2,23,42.4,24.1z"/>
<path d="M68.5,32c1,1.1,2,1.8,2.3,1.5c0.7-0.6-1.8-3.5-3.1-3.5C67.2,30,67.5,30.9,68.5,32z"/>
<path d="M73.5,38.5c3.1,9.1,3.1,16.5,0,22.6c-2.4,4.7-7.3,9.7-12,12.2c-3,1.6-5.8,2.1-11.2,2.2c-4.6,0-6.6,0.3-5.6,0.9
	c0.9,0.5,4.2,0.6,7.4,0.3c15.1-1.3,26.1-14.6,24.6-29.4c-0.3-2.8-1.3-6.4-2.2-8C73.6,37.8,73.2,37.4,73.5,38.5z"/>
<path d="M29,66.7c0,1.3,2.9,3.8,3.5,3.1c0.3-0.3-0.4-1.3-1.5-2.3C29.9,66.5,29,66.2,29,66.7z"/>
<g>
	<g>
		<path d="M37.3,43h1.7v12.8h-1.7v-9.6l0.1,0.6l-3.1,7.2h-1.2L29.7,47l0.1-0.7v9.6h-1.7V43h1.7l3.8,8.4L37.3,43z"/>
		<path d="M45.6,43h1.5l4.7,12.8h-1.9l-3.5-10.3l-3.5,10.3h-1.9L45.6,43z M43.1,51.3h6.7V53h-6.7V51.3z"/>
		<path d="M55.9,55.8c-0.6-0.1-1.1-0.3-1.5-0.5s-0.9-0.5-1.3-0.9l1.1-1.4c0.5,0.4,1,0.7,1.6,0.9s1.2,0.3,1.9,0.3
			c0.9,0,1.6-0.2,2.2-0.5s0.8-0.8,0.8-1.5v0c0-0.4-0.1-0.8-0.3-1.1c-0.2-0.3-0.5-0.5-0.9-0.6c-0.4-0.1-0.8-0.2-1.4-0.3
			c0,0,0,0-0.1,0c0,0,0,0-0.1,0l-0.1,0c-0.9-0.1-1.6-0.3-2.1-0.5c-0.5-0.2-1-0.5-1.4-1s-0.6-1.2-0.6-2.1v0c0-0.8,0.2-1.5,0.5-2
			c0.4-0.6,0.9-1,1.6-1.3s1.5-0.4,2.5-0.4c0.5,0,0.9,0,1.3,0.1s0.9,0.2,1.3,0.4c0.4,0.2,0.9,0.4,1.3,0.7l-1,1.4
			c-0.5-0.4-1-0.6-1.5-0.8c-0.5-0.2-1-0.3-1.5-0.3c-0.9,0-1.6,0.2-2,0.5c-0.5,0.3-0.7,0.8-0.7,1.5v0c0,0.4,0.1,0.8,0.4,1
			c0.2,0.3,0.6,0.4,0.9,0.6c0.4,0.1,0.9,0.2,1.6,0.4c0,0,0,0,0.1,0c0,0,0,0,0.1,0c0,0,0.1,0,0.1,0s0.1,0,0.1,0
			c0.8,0.2,1.4,0.3,1.9,0.6c0.5,0.2,1,0.6,1.3,1.1c0.3,0.5,0.5,1.1,0.5,2v0c0,0.8-0.2,1.4-0.6,2s-0.9,1-1.6,1.3
			c-0.7,0.3-1.5,0.4-2.5,0.4C57,56,56.4,55.9,55.9,55.8z"/>
		<path d="M66.7,55.4c-0.7-0.4-1.2-0.9-1.6-1.7s-0.6-1.6-0.6-2.5v-3.5c0-0.9,0.2-1.8,0.6-2.5s0.9-1.3,1.6-1.7s1.4-0.6,2.3-0.6
			c0.7,0,1.4,0.2,2,0.5s1.1,0.8,1.5,1.3c0.4,0.6,0.7,1.2,0.8,2h-1.8c-0.1-0.4-0.3-0.8-0.6-1.1s-0.6-0.6-0.9-0.7s-0.7-0.3-1.1-0.3
			c-0.5,0-1,0.1-1.4,0.4s-0.7,0.6-0.9,1.1s-0.3,1-0.3,1.6v3.5c0,0.6,0.1,1.1,0.3,1.6s0.5,0.8,0.9,1.1s0.8,0.4,1.4,0.4
			c0.4,0,0.7-0.1,1.1-0.2s0.7-0.4,0.9-0.7s0.4-0.7,0.6-1.1h1.8c-0.1,0.8-0.4,1.4-0.8,2s-0.9,1-1.5,1.3S69.8,56,69,56
			C68.1,56,67.4,55.8,66.7,55.4z"/>
	</g>
</g>
</svg>
